<mxfile host="Electron" modified="2023-05-15T12:08:52.338Z" agent="Mozilla/5.0 (Macintosh; Intel Mac OS X 10_15_7) AppleWebKit/537.36 (KHTML, like Gecko) draw.io/21.1.2 Chrome/106.0.5249.199 Electron/21.4.3 Safari/537.36" etag="UaMNBVNqmFgq6szXY4Ms" version="21.1.2" type="device">
  <diagram name="Page-1" id="QD3KIvTqT0qU-tMrhr5a">
    <mxGraphModel dx="1004" dy="1061" grid="1" gridSize="10" guides="1" tooltips="1" connect="1" arrows="1" fold="1" page="0" pageScale="1" pageWidth="850" pageHeight="1100" math="0" shadow="0">
      <root>
        <mxCell id="0" />
        <mxCell id="1" parent="0" />
        <mxCell id="PhxDLriE25jMCTU8oYbs-20" style="edgeStyle=orthogonalEdgeStyle;rounded=0;orthogonalLoop=1;jettySize=auto;html=1;" edge="1" parent="1" source="PhxDLriE25jMCTU8oYbs-15" target="PhxDLriE25jMCTU8oYbs-7">
          <mxGeometry relative="1" as="geometry" />
        </mxCell>
        <mxCell id="PhxDLriE25jMCTU8oYbs-14" style="edgeStyle=orthogonalEdgeStyle;rounded=0;orthogonalLoop=1;jettySize=auto;html=1;" edge="1" parent="1" source="PhxDLriE25jMCTU8oYbs-2" target="PhxDLriE25jMCTU8oYbs-7">
          <mxGeometry relative="1" as="geometry" />
        </mxCell>
        <mxCell id="PhxDLriE25jMCTU8oYbs-6" style="edgeStyle=orthogonalEdgeStyle;rounded=0;orthogonalLoop=1;jettySize=auto;html=1;entryX=0.5;entryY=0;entryDx=0;entryDy=0;entryPerimeter=0;" edge="1" parent="1" source="PhxDLriE25jMCTU8oYbs-1" target="PhxDLriE25jMCTU8oYbs-5">
          <mxGeometry relative="1" as="geometry">
            <Array as="points">
              <mxPoint x="519" y="200" />
            </Array>
          </mxGeometry>
        </mxCell>
        <mxCell id="PhxDLriE25jMCTU8oYbs-1" value="corsRule" style="swimlane;fontStyle=0;childLayout=stackLayout;horizontal=1;startSize=30;horizontalStack=0;resizeParent=1;resizeParentMax=0;resizeLast=0;collapsible=1;marginBottom=0;whiteSpace=wrap;html=1;" vertex="1" parent="1">
          <mxGeometry x="70" y="60" width="200" height="250" as="geometry" />
        </mxCell>
        <mxCell id="PhxDLriE25jMCTU8oYbs-2" value="&lt;meta charset=&quot;utf-8&quot;&gt;&lt;div style=&quot;color: rgb(204, 204, 204); background-color: rgb(31, 31, 31); font-family: Menlo, Monaco, &amp;quot;Courier New&amp;quot;, monospace; font-weight: normal; font-size: 12px; line-height: 18px;&quot;&gt;&lt;div&gt;&lt;span style=&quot;color: #9cdcfe;&quot;&gt;allowedOrigins&lt;/span&gt;&lt;span style=&quot;color: #9cdcfe;&quot;&gt;:&lt;/span&gt;&lt;span style=&quot;color: #cccccc;&quot;&gt; [&lt;/span&gt;&lt;span style=&quot;color: #ce9178;&quot;&gt;&#39;*&#39;&lt;/span&gt;&lt;span style=&quot;color: #cccccc;&quot;&gt;],&lt;/span&gt;&lt;/div&gt;&lt;div&gt;&lt;span style=&quot;color: #cccccc;&quot;&gt;      &lt;/span&gt;&lt;span style=&quot;color: #9cdcfe;&quot;&gt;allowedMethods&lt;/span&gt;&lt;span style=&quot;color: #9cdcfe;&quot;&gt;:&lt;/span&gt;&lt;span style=&quot;color: #cccccc;&quot;&gt; [&lt;/span&gt;&lt;/div&gt;&lt;div&gt;&lt;span style=&quot;color: #cccccc;&quot;&gt;        &lt;/span&gt;&lt;span style=&quot;color: #9cdcfe;&quot;&gt;s3&lt;/span&gt;&lt;span style=&quot;color: #cccccc;&quot;&gt;.&lt;/span&gt;&lt;span style=&quot;color: #4ec9b0;&quot;&gt;HttpMethods&lt;/span&gt;&lt;span style=&quot;color: #cccccc;&quot;&gt;.&lt;/span&gt;&lt;span style=&quot;color: #4fc1ff;&quot;&gt;HEAD&lt;/span&gt;&lt;span style=&quot;color: #cccccc;&quot;&gt;,&lt;/span&gt;&lt;/div&gt;&lt;div&gt;&lt;span style=&quot;color: #cccccc;&quot;&gt;        &lt;/span&gt;&lt;span style=&quot;color: #9cdcfe;&quot;&gt;s3&lt;/span&gt;&lt;span style=&quot;color: #cccccc;&quot;&gt;.&lt;/span&gt;&lt;span style=&quot;color: #4ec9b0;&quot;&gt;HttpMethods&lt;/span&gt;&lt;span style=&quot;color: #cccccc;&quot;&gt;.&lt;/span&gt;&lt;span style=&quot;color: #4fc1ff;&quot;&gt;GET&lt;/span&gt;&lt;span style=&quot;color: #cccccc;&quot;&gt;,&lt;/span&gt;&lt;/div&gt;&lt;div&gt;&lt;span style=&quot;color: #cccccc;&quot;&gt;        &lt;/span&gt;&lt;span style=&quot;color: #9cdcfe;&quot;&gt;s3&lt;/span&gt;&lt;span style=&quot;color: #cccccc;&quot;&gt;.&lt;/span&gt;&lt;span style=&quot;color: #4ec9b0;&quot;&gt;HttpMethods&lt;/span&gt;&lt;span style=&quot;color: #cccccc;&quot;&gt;.&lt;/span&gt;&lt;span style=&quot;color: #4fc1ff;&quot;&gt;PUT&lt;/span&gt;&lt;span style=&quot;color: #cccccc;&quot;&gt;,&lt;/span&gt;&lt;/div&gt;&lt;div&gt;&lt;span style=&quot;color: #cccccc;&quot;&gt;        &lt;/span&gt;&lt;span style=&quot;color: #9cdcfe;&quot;&gt;s3&lt;/span&gt;&lt;span style=&quot;color: #cccccc;&quot;&gt;.&lt;/span&gt;&lt;span style=&quot;color: #4ec9b0;&quot;&gt;HttpMethods&lt;/span&gt;&lt;span style=&quot;color: #cccccc;&quot;&gt;.&lt;/span&gt;&lt;span style=&quot;color: #4fc1ff;&quot;&gt;POST&lt;/span&gt;&lt;span style=&quot;color: #cccccc;&quot;&gt;,&lt;/span&gt;&lt;/div&gt;&lt;div&gt;&lt;span style=&quot;color: #cccccc;&quot;&gt;        &lt;/span&gt;&lt;span style=&quot;color: #9cdcfe;&quot;&gt;s3&lt;/span&gt;&lt;span style=&quot;color: #cccccc;&quot;&gt;.&lt;/span&gt;&lt;span style=&quot;color: #4ec9b0;&quot;&gt;HttpMethods&lt;/span&gt;&lt;span style=&quot;color: #cccccc;&quot;&gt;.&lt;/span&gt;&lt;span style=&quot;color: #4fc1ff;&quot;&gt;DELETE&lt;/span&gt;&lt;span style=&quot;color: #cccccc;&quot;&gt;,&lt;/span&gt;&lt;/div&gt;&lt;div&gt;&lt;span style=&quot;color: #cccccc;&quot;&gt;      ],&lt;/span&gt;&lt;/div&gt;&lt;div&gt;&lt;span style=&quot;color: #cccccc;&quot;&gt;      &lt;/span&gt;&lt;span style=&quot;color: #9cdcfe;&quot;&gt;maxAge&lt;/span&gt;&lt;span style=&quot;color: #9cdcfe;&quot;&gt;:&lt;/span&gt;&lt;span style=&quot;color: #cccccc;&quot;&gt; &lt;/span&gt;&lt;span style=&quot;color: #b5cea8;&quot;&gt;3000&lt;/span&gt;&lt;span style=&quot;color: #cccccc;&quot;&gt;,&lt;/span&gt;&lt;/div&gt;&lt;div&gt;&lt;span style=&quot;color: #cccccc;&quot;&gt;      &lt;/span&gt;&lt;span style=&quot;color: #9cdcfe;&quot;&gt;exposedHeaders&lt;/span&gt;&lt;span style=&quot;color: #9cdcfe;&quot;&gt;:&lt;/span&gt;&lt;span style=&quot;color: #cccccc;&quot;&gt; [&lt;/span&gt;&lt;span style=&quot;color: #ce9178;&quot;&gt;&#39;ETag&#39;&lt;/span&gt;&lt;span style=&quot;color: #cccccc;&quot;&gt;],&lt;/span&gt;&lt;/div&gt;&lt;div&gt;&lt;span style=&quot;color: #cccccc;&quot;&gt;      &lt;/span&gt;&lt;span style=&quot;color: #9cdcfe;&quot;&gt;allowedHeaders&lt;/span&gt;&lt;span style=&quot;color: #9cdcfe;&quot;&gt;:&lt;/span&gt;&lt;span style=&quot;color: #cccccc;&quot;&gt; [&lt;/span&gt;&lt;span style=&quot;color: #ce9178;&quot;&gt;&#39;*&#39;&lt;/span&gt;&lt;span style=&quot;color: #cccccc;&quot;&gt;],&lt;/span&gt;&lt;/div&gt;&lt;/div&gt;" style="text;strokeColor=none;fillColor=none;align=left;verticalAlign=middle;spacingLeft=4;spacingRight=4;overflow=hidden;points=[[0,0.5],[1,0.5]];portConstraint=eastwest;rotatable=0;whiteSpace=wrap;html=1;" vertex="1" parent="PhxDLriE25jMCTU8oYbs-1">
          <mxGeometry y="30" width="200" height="220" as="geometry" />
        </mxCell>
        <mxCell id="PhxDLriE25jMCTU8oYbs-5" value="&lt;div style=&quot;background-color: rgb(31, 31, 31); font-family: Menlo, Monaco, &amp;quot;Courier New&amp;quot;, monospace; line-height: 18px;&quot;&gt;&lt;font color=&quot;#4fc1ff&quot;&gt;storageS3Bucket&lt;/font&gt;&lt;/div&gt;&lt;div style=&quot;color: rgb(204, 204, 204); background-color: rgb(31, 31, 31); font-family: Menlo, Monaco, &amp;quot;Courier New&amp;quot;, monospace; line-height: 18px;&quot;&gt;Transcribe, Comprehend and Audio&lt;/div&gt;&lt;div style=&quot;color: rgb(204, 204, 204); background-color: rgb(31, 31, 31); font-family: Menlo, Monaco, &amp;quot;Courier New&amp;quot;, monospace; line-height: 18px;&quot;&gt;Site&lt;/div&gt;" style="sketch=0;points=[[0,0,0],[0.25,0,0],[0.5,0,0],[0.75,0,0],[1,0,0],[0,1,0],[0.25,1,0],[0.5,1,0],[0.75,1,0],[1,1,0],[0,0.25,0],[0,0.5,0],[0,0.75,0],[1,0.25,0],[1,0.5,0],[1,0.75,0]];outlineConnect=0;fontColor=#232F3E;gradientColor=#60A337;gradientDirection=north;fillColor=#277116;strokeColor=#ffffff;dashed=0;verticalLabelPosition=bottom;verticalAlign=top;align=center;html=1;fontSize=12;fontStyle=0;aspect=fixed;shape=mxgraph.aws4.resourceIcon;resIcon=mxgraph.aws4.s3;" vertex="1" parent="1">
          <mxGeometry x="480" y="230" width="78" height="78" as="geometry" />
        </mxCell>
        <mxCell id="PhxDLriE25jMCTU8oYbs-7" value="&lt;div style=&quot;background-color: rgb(31, 31, 31); font-family: Menlo, Monaco, &amp;quot;Courier New&amp;quot;, monospace; font-weight: normal; font-size: 12px; line-height: 18px;&quot;&gt;&lt;div style=&quot;&quot;&gt;&lt;font color=&quot;#4fc1ff&quot;&gt;webAppS3Bucket&lt;/font&gt;&lt;/div&gt;&lt;div style=&quot;&quot;&gt;&lt;font color=&quot;#cccccc&quot;&gt;Website&#39;s Frontend&lt;/font&gt;&lt;/div&gt;&lt;/div&gt;" style="sketch=0;points=[[0,0,0],[0.25,0,0],[0.5,0,0],[0.75,0,0],[1,0,0],[0,1,0],[0.25,1,0],[0.5,1,0],[0.75,1,0],[1,1,0],[0,0.25,0],[0,0.5,0],[0,0.75,0],[1,0.25,0],[1,0.5,0],[1,0.75,0]];outlineConnect=0;fontColor=#232F3E;gradientColor=#60A337;gradientDirection=north;fillColor=#277116;strokeColor=#ffffff;dashed=0;verticalLabelPosition=bottom;verticalAlign=top;align=center;html=1;fontSize=12;fontStyle=0;aspect=fixed;shape=mxgraph.aws4.resourceIcon;resIcon=mxgraph.aws4.s3;" vertex="1" parent="1">
          <mxGeometry x="480" y="420" width="78" height="78" as="geometry" />
        </mxCell>
        <mxCell id="PhxDLriE25jMCTU8oYbs-11" style="edgeStyle=orthogonalEdgeStyle;rounded=0;orthogonalLoop=1;jettySize=auto;html=1;" edge="1" parent="1" source="PhxDLriE25jMCTU8oYbs-10" target="PhxDLriE25jMCTU8oYbs-7">
          <mxGeometry relative="1" as="geometry" />
        </mxCell>
        <mxCell id="PhxDLriE25jMCTU8oYbs-10" value="&lt;meta charset=&quot;utf-8&quot;&gt;&lt;div style=&quot;color: rgb(204, 204, 204); background-color: rgb(31, 31, 31); font-family: Menlo, Monaco, &amp;quot;Courier New&amp;quot;, monospace; font-weight: normal; font-size: 12px; line-height: 18px;&quot;&gt;&lt;div&gt;&lt;span style=&quot;color: #4fc1ff;&quot;&gt;distribution&lt;/span&gt;&lt;/div&gt;&lt;/div&gt;" style="sketch=0;points=[[0,0,0],[0.25,0,0],[0.5,0,0],[0.75,0,0],[1,0,0],[0,1,0],[0.25,1,0],[0.5,1,0],[0.75,1,0],[1,1,0],[0,0.25,0],[0,0.5,0],[0,0.75,0],[1,0.25,0],[1,0.5,0],[1,0.75,0]];outlineConnect=0;fontColor=#232F3E;gradientColor=#945DF2;gradientDirection=north;fillColor=#5A30B5;strokeColor=#ffffff;dashed=0;verticalLabelPosition=bottom;verticalAlign=top;align=center;html=1;fontSize=12;fontStyle=0;aspect=fixed;shape=mxgraph.aws4.resourceIcon;resIcon=mxgraph.aws4.cloudfront;" vertex="1" parent="1">
          <mxGeometry x="210" y="420" width="78" height="78" as="geometry" />
        </mxCell>
        <mxCell id="PhxDLriE25jMCTU8oYbs-15" value="&lt;meta charset=&quot;utf-8&quot;&gt;&lt;div style=&quot;color: rgb(204, 204, 204); background-color: rgb(31, 31, 31); font-family: Menlo, Monaco, &amp;quot;Courier New&amp;quot;, monospace; font-weight: normal; font-size: 12px; line-height: 18px;&quot;&gt;&lt;div&gt;&lt;span style=&quot;color: #4fc1ff;&quot;&gt;cloudfrontPolicyStatement&lt;/span&gt;&lt;/div&gt;&lt;/div&gt;" style="swimlane;fontStyle=0;childLayout=stackLayout;horizontal=1;startSize=30;horizontalStack=0;resizeParent=1;resizeParentMax=0;resizeLast=0;collapsible=1;marginBottom=0;whiteSpace=wrap;html=1;" vertex="1" parent="1">
          <mxGeometry x="40" y="640" width="620" height="110" as="geometry" />
        </mxCell>
        <mxCell id="PhxDLriE25jMCTU8oYbs-16" value="&lt;div style=&quot;color: rgb(204, 204, 204); background-color: rgb(31, 31, 31); font-family: Menlo, Monaco, &amp;quot;Courier New&amp;quot;, monospace; font-weight: normal; font-size: 12px; line-height: 18px;&quot;&gt;&lt;div style=&quot;line-height: 18px;&quot;&gt;&lt;div&gt;actions&lt;span style=&quot;color: #9cdcfe;&quot;&gt;:&lt;/span&gt; [&lt;span style=&quot;color: #ce9178;&quot;&gt;&#39;s3:GetBucket*&#39;&lt;/span&gt;, &lt;span style=&quot;color: #ce9178;&quot;&gt;&#39;s3:GetObject*&#39;&lt;/span&gt;, &lt;span style=&quot;color: #ce9178;&quot;&gt;&#39;s3:List*&#39;&lt;/span&gt;],&lt;/div&gt;&lt;div&gt;      &lt;span style=&quot;color: #9cdcfe;&quot;&gt;resources&lt;/span&gt;&lt;span style=&quot;color: #9cdcfe;&quot;&gt;:&lt;/span&gt; [&lt;span style=&quot;color: #4fc1ff;&quot;&gt;webAppS3Bucket&lt;/span&gt;.&lt;span style=&quot;color: #4fc1ff;&quot;&gt;bucketArn&lt;/span&gt;, &lt;span style=&quot;color: #ce9178;&quot;&gt;`&lt;/span&gt;&lt;span style=&quot;color: #569cd6;&quot;&gt;${&lt;/span&gt;&lt;span style=&quot;color: #4fc1ff;&quot;&gt;webAppS3Bucket&lt;/span&gt;&lt;span style=&quot;color: #d4d4d4;&quot;&gt;.&lt;/span&gt;&lt;span style=&quot;color: #4fc1ff;&quot;&gt;bucketArn&lt;/span&gt;&lt;span style=&quot;color: #569cd6;&quot;&gt;}&lt;/span&gt;&lt;span style=&quot;color: #ce9178;&quot;&gt;/*`&lt;/span&gt;],&lt;/div&gt;&lt;div&gt;      &lt;span style=&quot;color: #9cdcfe;&quot;&gt;principals&lt;/span&gt;&lt;span style=&quot;color: #9cdcfe;&quot;&gt;:&lt;/span&gt; [&lt;span style=&quot;color: #569cd6;&quot;&gt;new&lt;/span&gt; &lt;span style=&quot;color: #4ec9b0;&quot;&gt;CanonicalUserPrincipal&lt;/span&gt;(&lt;span style=&quot;color: #4fc1ff;&quot;&gt;oai&lt;/span&gt;.&lt;span style=&quot;color: #4fc1ff;&quot;&gt;cloudFrontOriginAccessIdentityS3CanonicalUserId&lt;/span&gt;)],&lt;/div&gt;&lt;/div&gt;&lt;/div&gt;" style="text;strokeColor=none;fillColor=none;align=left;verticalAlign=middle;spacingLeft=4;spacingRight=4;overflow=hidden;points=[[0,0.5],[1,0.5]];portConstraint=eastwest;rotatable=0;whiteSpace=wrap;html=1;" vertex="1" parent="PhxDLriE25jMCTU8oYbs-15">
          <mxGeometry y="30" width="620" height="80" as="geometry" />
        </mxCell>
        <mxCell id="PhxDLriE25jMCTU8oYbs-17" value="&lt;meta charset=&quot;utf-8&quot;&gt;&lt;div style=&quot;color: rgb(204, 204, 204); background-color: rgb(31, 31, 31); font-family: Menlo, Monaco, &amp;quot;Courier New&amp;quot;, monospace; font-weight: normal; font-size: 12px; line-height: 18px;&quot;&gt;&lt;div&gt;&lt;span style=&quot;color: #4fc1ff;&quot;&gt;cloudfrontStorageBucketPolicyStatement&lt;/span&gt;&lt;/div&gt;&lt;/div&gt;" style="swimlane;fontStyle=0;childLayout=stackLayout;horizontal=1;startSize=30;horizontalStack=0;resizeParent=1;resizeParentMax=0;resizeLast=0;collapsible=1;marginBottom=0;whiteSpace=wrap;html=1;" vertex="1" parent="1">
          <mxGeometry x="380" y="-80" width="620" height="110" as="geometry" />
        </mxCell>
        <mxCell id="PhxDLriE25jMCTU8oYbs-18" value="&lt;div style=&quot;color: rgb(204, 204, 204); background-color: rgb(31, 31, 31); font-family: Menlo, Monaco, &amp;quot;Courier New&amp;quot;, monospace; font-weight: normal; font-size: 12px; line-height: 18px;&quot;&gt;&lt;div style=&quot;line-height: 18px;&quot;&gt;&lt;div style=&quot;line-height: 18px;&quot;&gt;&lt;div&gt;actions&lt;span style=&quot;color: #9cdcfe;&quot;&gt;:&lt;/span&gt; [&lt;span style=&quot;color: #ce9178;&quot;&gt;&#39;s3:GetBucket*&#39;&lt;/span&gt;, &lt;span style=&quot;color: #ce9178;&quot;&gt;&#39;s3:GetObject*&#39;&lt;/span&gt;, &lt;span style=&quot;color: #ce9178;&quot;&gt;&#39;s3:List*&#39;&lt;/span&gt;, &lt;span style=&quot;color: #ce9178;&quot;&gt;&#39;s3:PutObject&#39;&lt;/span&gt;],&lt;/div&gt;&lt;div&gt;      &lt;span style=&quot;color: #9cdcfe;&quot;&gt;resources&lt;/span&gt;&lt;span style=&quot;color: #9cdcfe;&quot;&gt;:&lt;/span&gt; [&lt;span style=&quot;color: #4fc1ff;&quot;&gt;storageS3Bucket&lt;/span&gt;.&lt;span style=&quot;color: #4fc1ff;&quot;&gt;bucketArn&lt;/span&gt;, &lt;span style=&quot;color: #ce9178;&quot;&gt;`&lt;/span&gt;&lt;span style=&quot;color: #569cd6;&quot;&gt;${&lt;/span&gt;&lt;span style=&quot;color: #4fc1ff;&quot;&gt;storageS3Bucket&lt;/span&gt;&lt;span style=&quot;color: #d4d4d4;&quot;&gt;.&lt;/span&gt;&lt;span style=&quot;color: #4fc1ff;&quot;&gt;bucketArn&lt;/span&gt;&lt;span style=&quot;color: #569cd6;&quot;&gt;}&lt;/span&gt;&lt;span style=&quot;color: #ce9178;&quot;&gt;/*`&lt;/span&gt;],&lt;/div&gt;&lt;div&gt;      &lt;span style=&quot;color: #9cdcfe;&quot;&gt;principals&lt;/span&gt;&lt;span style=&quot;color: #9cdcfe;&quot;&gt;:&lt;/span&gt; [&lt;span style=&quot;color: #569cd6;&quot;&gt;new&lt;/span&gt; &lt;span style=&quot;color: #4ec9b0;&quot;&gt;CanonicalUserPrincipal&lt;/span&gt;(&lt;span style=&quot;color: #4fc1ff;&quot;&gt;oai&lt;/span&gt;.&lt;span style=&quot;color: #4fc1ff;&quot;&gt;cloudFrontOriginAccessIdentityS3CanonicalUserId&lt;/span&gt;)],&lt;/div&gt;&lt;/div&gt;&lt;/div&gt;&lt;/div&gt;" style="text;strokeColor=none;fillColor=none;align=left;verticalAlign=middle;spacingLeft=4;spacingRight=4;overflow=hidden;points=[[0,0.5],[1,0.5]];portConstraint=eastwest;rotatable=0;whiteSpace=wrap;html=1;" vertex="1" parent="PhxDLriE25jMCTU8oYbs-17">
          <mxGeometry y="30" width="620" height="80" as="geometry" />
        </mxCell>
        <mxCell id="PhxDLriE25jMCTU8oYbs-19" style="edgeStyle=orthogonalEdgeStyle;rounded=0;orthogonalLoop=1;jettySize=auto;html=1;entryX=0.75;entryY=0;entryDx=0;entryDy=0;entryPerimeter=0;exitX=0.529;exitY=1.02;exitDx=0;exitDy=0;exitPerimeter=0;" edge="1" parent="1" source="PhxDLriE25jMCTU8oYbs-18" target="PhxDLriE25jMCTU8oYbs-5">
          <mxGeometry relative="1" as="geometry">
            <Array as="points">
              <mxPoint x="710" y="32" />
              <mxPoint x="710" y="130" />
              <mxPoint x="539" y="130" />
            </Array>
          </mxGeometry>
        </mxCell>
        <mxCell id="PhxDLriE25jMCTU8oYbs-21" value="&lt;meta charset=&quot;utf-8&quot;&gt;&lt;div style=&quot;color: rgb(204, 204, 204); background-color: rgb(31, 31, 31); font-family: Menlo, Monaco, &amp;quot;Courier New&amp;quot;, monospace; font-weight: normal; font-size: 12px; line-height: 18px;&quot;&gt;&lt;div&gt;&lt;span style=&quot;color: #4fc1ff;&quot;&gt;mtaUserPool&lt;/span&gt;&lt;/div&gt;&lt;/div&gt;" style="sketch=0;points=[[0,0,0],[0.25,0,0],[0.5,0,0],[0.75,0,0],[1,0,0],[0,1,0],[0.25,1,0],[0.5,1,0],[0.75,1,0],[1,1,0],[0,0.25,0],[0,0.5,0],[0,0.75,0],[1,0.25,0],[1,0.5,0],[1,0.75,0]];outlineConnect=0;fontColor=#232F3E;gradientColor=#F54749;gradientDirection=north;fillColor=#C7131F;strokeColor=#ffffff;dashed=0;verticalLabelPosition=bottom;verticalAlign=top;align=center;html=1;fontSize=12;fontStyle=0;aspect=fixed;shape=mxgraph.aws4.resourceIcon;resIcon=mxgraph.aws4.cognito;" vertex="1" parent="1">
          <mxGeometry x="800" y="420" width="78" height="78" as="geometry" />
        </mxCell>
        <mxCell id="PhxDLriE25jMCTU8oYbs-22" value="&lt;div style=&quot;background-color: rgb(31, 31, 31); font-family: Menlo, Monaco, &amp;quot;Courier New&amp;quot;, monospace; font-weight: normal; font-size: 12px; line-height: 18px;&quot;&gt;&lt;div style=&quot;color: rgb(204, 204, 204);&quot;&gt;&lt;span style=&quot;color: #4fc1ff;&quot;&gt;mtaUserPoolUser&lt;/span&gt;&lt;/div&gt;&lt;div style=&quot;&quot;&gt;&lt;font color=&quot;#cccccc&quot;&gt;User of the inseter email&lt;/font&gt;&lt;/div&gt;&lt;/div&gt;" style="sketch=0;outlineConnect=0;fontColor=#232F3E;gradientColor=none;fillColor=#C7131F;strokeColor=none;dashed=0;verticalLabelPosition=bottom;verticalAlign=top;align=center;html=1;fontSize=12;fontStyle=0;aspect=fixed;pointerEvents=1;shape=mxgraph.aws4.user;" vertex="1" parent="1">
          <mxGeometry x="900" y="590" width="78" height="78" as="geometry" />
        </mxCell>
        <mxCell id="PhxDLriE25jMCTU8oYbs-23" value="&lt;meta charset=&quot;utf-8&quot;&gt;&lt;div style=&quot;color: rgb(204, 204, 204); background-color: rgb(31, 31, 31); font-family: Menlo, Monaco, &amp;quot;Courier New&amp;quot;, monospace; font-weight: normal; font-size: 12px; line-height: 18px;&quot;&gt;&lt;div&gt;&lt;span style=&quot;color: #4fc1ff;&quot;&gt;mtaIdentityPool&lt;/span&gt;&lt;/div&gt;&lt;/div&gt;" style="sketch=0;points=[[0,0,0],[0.25,0,0],[0.5,0,0],[0.75,0,0],[1,0,0],[0,1,0],[0.25,1,0],[0.5,1,0],[0.75,1,0],[1,1,0],[0,0.25,0],[0,0.5,0],[0,0.75,0],[1,0.25,0],[1,0.5,0],[1,0.75,0]];outlineConnect=0;fontColor=#232F3E;gradientColor=#F54749;gradientDirection=north;fillColor=#C7131F;strokeColor=#ffffff;dashed=0;verticalLabelPosition=bottom;verticalAlign=top;align=center;html=1;fontSize=12;fontStyle=0;aspect=fixed;shape=mxgraph.aws4.resourceIcon;resIcon=mxgraph.aws4.cognito;" vertex="1" parent="1">
          <mxGeometry x="1060" y="420" width="78" height="78" as="geometry" />
        </mxCell>
        <mxCell id="PhxDLriE25jMCTU8oYbs-24" value="&lt;meta charset=&quot;utf-8&quot;&gt;&lt;div style=&quot;color: rgb(204, 204, 204); background-color: rgb(31, 31, 31); font-family: Menlo, Monaco, &amp;quot;Courier New&amp;quot;, monospace; font-weight: normal; font-size: 12px; line-height: 18px;&quot;&gt;&lt;div&gt;&lt;span style=&quot;color: #4fc1ff;&quot;&gt;cognitoPolicy&lt;/span&gt;&lt;/div&gt;&lt;/div&gt;" style="swimlane;fontStyle=0;childLayout=stackLayout;horizontal=1;startSize=30;horizontalStack=0;resizeParent=1;resizeParentMax=0;resizeLast=0;collapsible=1;marginBottom=0;whiteSpace=wrap;html=1;" vertex="1" parent="1">
          <mxGeometry x="1100" y="-190" width="540" height="430" as="geometry" />
        </mxCell>
        <mxCell id="PhxDLriE25jMCTU8oYbs-25" value="&lt;div style=&quot;color: rgb(204, 204, 204); background-color: rgb(31, 31, 31); font-family: Menlo, Monaco, &amp;quot;Courier New&amp;quot;, monospace; font-weight: normal; font-size: 12px; line-height: 18px;&quot;&gt;&lt;div style=&quot;line-height: 18px;&quot;&gt;&lt;div style=&quot;line-height: 18px;&quot;&gt;&lt;div&gt;statements&lt;span style=&quot;color: #9cdcfe;&quot;&gt;:&lt;/span&gt; [&lt;/div&gt;&lt;div&gt;        &lt;span style=&quot;color: #569cd6;&quot;&gt;new&lt;/span&gt; &lt;span style=&quot;color: #9cdcfe;&quot;&gt;iam&lt;/span&gt;.&lt;span style=&quot;color: #4ec9b0;&quot;&gt;PolicyStatement&lt;/span&gt;({&lt;/div&gt;&lt;div&gt;          &lt;span style=&quot;color: #9cdcfe;&quot;&gt;actions&lt;/span&gt;&lt;span style=&quot;color: #9cdcfe;&quot;&gt;:&lt;/span&gt; [&lt;span style=&quot;color: #ce9178;&quot;&gt;&#39;cognito-identity:GetId&#39;&lt;/span&gt;],&lt;/div&gt;&lt;div&gt;          &lt;span style=&quot;color: #9cdcfe;&quot;&gt;resources&lt;/span&gt;&lt;span style=&quot;color: #9cdcfe;&quot;&gt;:&lt;/span&gt; [&lt;span style=&quot;color: #ce9178;&quot;&gt;&#39;*&#39;&lt;/span&gt;],&lt;/div&gt;&lt;div&gt;          &lt;span style=&quot;color: #9cdcfe;&quot;&gt;effect&lt;/span&gt;&lt;span style=&quot;color: #9cdcfe;&quot;&gt;:&lt;/span&gt; &lt;span style=&quot;color: #9cdcfe;&quot;&gt;iam&lt;/span&gt;.&lt;span style=&quot;color: #4ec9b0;&quot;&gt;Effect&lt;/span&gt;.&lt;span style=&quot;color: #4fc1ff;&quot;&gt;ALLOW&lt;/span&gt;,&lt;/div&gt;&lt;div&gt;        }),&lt;/div&gt;&lt;div&gt;        &lt;span style=&quot;color: #569cd6;&quot;&gt;new&lt;/span&gt; &lt;span style=&quot;color: #9cdcfe;&quot;&gt;iam&lt;/span&gt;.&lt;span style=&quot;color: #4ec9b0;&quot;&gt;PolicyStatement&lt;/span&gt;({&lt;/div&gt;&lt;div&gt;          &lt;span style=&quot;color: #9cdcfe;&quot;&gt;actions&lt;/span&gt;&lt;span style=&quot;color: #9cdcfe;&quot;&gt;:&lt;/span&gt; [&lt;span style=&quot;color: #ce9178;&quot;&gt;&#39;transcribe:*&#39;&lt;/span&gt;, &lt;span style=&quot;color: #ce9178;&quot;&gt;&#39;comprehendmedical:*&#39;&lt;/span&gt;],&lt;/div&gt;&lt;div&gt;          &lt;span style=&quot;color: #9cdcfe;&quot;&gt;resources&lt;/span&gt;&lt;span style=&quot;color: #9cdcfe;&quot;&gt;:&lt;/span&gt; [&lt;span style=&quot;color: #ce9178;&quot;&gt;&#39;*&#39;&lt;/span&gt;],&lt;/div&gt;&lt;div&gt;          &lt;span style=&quot;color: #9cdcfe;&quot;&gt;effect&lt;/span&gt;&lt;span style=&quot;color: #9cdcfe;&quot;&gt;:&lt;/span&gt; &lt;span style=&quot;color: #9cdcfe;&quot;&gt;iam&lt;/span&gt;.&lt;span style=&quot;color: #4ec9b0;&quot;&gt;Effect&lt;/span&gt;.&lt;span style=&quot;color: #4fc1ff;&quot;&gt;ALLOW&lt;/span&gt;,&lt;/div&gt;&lt;div&gt;        }),&lt;/div&gt;&lt;div&gt;        &lt;span style=&quot;color: #569cd6;&quot;&gt;new&lt;/span&gt; &lt;span style=&quot;color: #9cdcfe;&quot;&gt;iam&lt;/span&gt;.&lt;span style=&quot;color: #4ec9b0;&quot;&gt;PolicyStatement&lt;/span&gt;({&lt;/div&gt;&lt;div&gt;          &lt;span style=&quot;color: #9cdcfe;&quot;&gt;actions&lt;/span&gt;&lt;span style=&quot;color: #9cdcfe;&quot;&gt;:&lt;/span&gt; [&lt;span style=&quot;color: #ce9178;&quot;&gt;&#39;s3:GetObject*&#39;&lt;/span&gt;, &lt;span style=&quot;color: #ce9178;&quot;&gt;&#39;s3:List*&#39;&lt;/span&gt;, &lt;span style=&quot;color: #ce9178;&quot;&gt;&#39;s3:PutObject&#39;&lt;/span&gt;],&lt;/div&gt;&lt;div&gt;          &lt;span style=&quot;color: #9cdcfe;&quot;&gt;resources&lt;/span&gt;&lt;span style=&quot;color: #9cdcfe;&quot;&gt;:&lt;/span&gt; [&lt;span style=&quot;color: #4fc1ff;&quot;&gt;storageS3Bucket&lt;/span&gt;.&lt;span style=&quot;color: #4fc1ff;&quot;&gt;bucketArn&lt;/span&gt;, &lt;span style=&quot;color: #ce9178;&quot;&gt;`&lt;/span&gt;&lt;span style=&quot;color: #569cd6;&quot;&gt;${&lt;/span&gt;&lt;span style=&quot;color: #4fc1ff;&quot;&gt;storageS3Bucket&lt;/span&gt;&lt;span style=&quot;color: #d4d4d4;&quot;&gt;.&lt;/span&gt;&lt;span style=&quot;color: #4fc1ff;&quot;&gt;bucketArn&lt;/span&gt;&lt;span style=&quot;color: #569cd6;&quot;&gt;}&lt;/span&gt;&lt;span style=&quot;color: #ce9178;&quot;&gt;/*`&lt;/span&gt;],&lt;/div&gt;&lt;div&gt;          &lt;span style=&quot;color: #9cdcfe;&quot;&gt;effect&lt;/span&gt;&lt;span style=&quot;color: #9cdcfe;&quot;&gt;:&lt;/span&gt; &lt;span style=&quot;color: #9cdcfe;&quot;&gt;iam&lt;/span&gt;.&lt;span style=&quot;color: #4ec9b0;&quot;&gt;Effect&lt;/span&gt;.&lt;span style=&quot;color: #4fc1ff;&quot;&gt;ALLOW&lt;/span&gt;,&lt;/div&gt;&lt;div&gt;        }),&lt;/div&gt;&lt;div&gt;      ],&lt;/div&gt;&lt;div&gt;&lt;div style=&quot;line-height: 18px;&quot;&gt;&lt;div&gt;      new &lt;span style=&quot;color: #9cdcfe;&quot;&gt;iam&lt;/span&gt;.&lt;span style=&quot;color: #4ec9b0;&quot;&gt;PolicyStatement&lt;/span&gt;({&lt;/div&gt;&lt;div&gt;        &lt;span style=&quot;color: #9cdcfe;&quot;&gt;actions&lt;/span&gt;&lt;span style=&quot;color: #9cdcfe;&quot;&gt;:&lt;/span&gt; [&lt;span style=&quot;color: #ce9178;&quot;&gt;&#39;execute-api:Invoke&#39;&lt;/span&gt;],&lt;/div&gt;&lt;div&gt;        &lt;span style=&quot;color: #9cdcfe;&quot;&gt;resources&lt;/span&gt;&lt;span style=&quot;color: #9cdcfe;&quot;&gt;:&lt;/span&gt; [&lt;span style=&quot;color: #4fc1ff;&quot;&gt;api&lt;/span&gt;.&lt;span style=&quot;color: #dcdcaa;&quot;&gt;arnForExecuteApi&lt;/span&gt;()],&lt;/div&gt;&lt;div&gt;        &lt;span style=&quot;color: #9cdcfe;&quot;&gt;effect&lt;/span&gt;&lt;span style=&quot;color: #9cdcfe;&quot;&gt;:&lt;/span&gt; &lt;span style=&quot;color: #9cdcfe;&quot;&gt;iam&lt;/span&gt;.&lt;span style=&quot;color: #4ec9b0;&quot;&gt;Effect&lt;/span&gt;.&lt;span style=&quot;color: #4fc1ff;&quot;&gt;ALLOW&lt;/span&gt;,&lt;/div&gt;&lt;div&gt;      }),&lt;/div&gt;&lt;/div&gt;&lt;/div&gt;&lt;/div&gt;&lt;/div&gt;&lt;/div&gt;" style="text;strokeColor=none;fillColor=none;align=left;verticalAlign=middle;spacingLeft=4;spacingRight=4;overflow=hidden;points=[[0,0.5],[1,0.5]];portConstraint=eastwest;rotatable=0;whiteSpace=wrap;html=1;" vertex="1" parent="PhxDLriE25jMCTU8oYbs-24">
          <mxGeometry y="30" width="540" height="400" as="geometry" />
        </mxCell>
        <mxCell id="PhxDLriE25jMCTU8oYbs-26" style="edgeStyle=orthogonalEdgeStyle;rounded=0;orthogonalLoop=1;jettySize=auto;html=1;" edge="1" parent="1" source="PhxDLriE25jMCTU8oYbs-25" target="PhxDLriE25jMCTU8oYbs-23">
          <mxGeometry relative="1" as="geometry">
            <Array as="points">
              <mxPoint x="1310" y="370" />
              <mxPoint x="1099" y="370" />
            </Array>
          </mxGeometry>
        </mxCell>
        <mxCell id="PhxDLriE25jMCTU8oYbs-27" value="AuthenticatedRole" style="edgeLabel;html=1;align=center;verticalAlign=middle;resizable=0;points=[];" vertex="1" connectable="0" parent="PhxDLriE25jMCTU8oYbs-26">
          <mxGeometry x="-0.277" y="1" relative="1" as="geometry">
            <mxPoint as="offset" />
          </mxGeometry>
        </mxCell>
        <mxCell id="PhxDLriE25jMCTU8oYbs-44" style="edgeStyle=orthogonalEdgeStyle;rounded=0;orthogonalLoop=1;jettySize=auto;html=1;" edge="1" parent="1" source="PhxDLriE25jMCTU8oYbs-28" target="PhxDLriE25jMCTU8oYbs-43">
          <mxGeometry relative="1" as="geometry" />
        </mxCell>
        <mxCell id="PhxDLriE25jMCTU8oYbs-45" value="Role" style="edgeLabel;html=1;align=center;verticalAlign=middle;resizable=0;points=[];" vertex="1" connectable="0" parent="PhxDLriE25jMCTU8oYbs-44">
          <mxGeometry x="-0.2572" y="-2" relative="1" as="geometry">
            <mxPoint as="offset" />
          </mxGeometry>
        </mxCell>
        <mxCell id="PhxDLriE25jMCTU8oYbs-28" value="&lt;meta charset=&quot;utf-8&quot;&gt;&lt;div style=&quot;color: rgb(204, 204, 204); background-color: rgb(31, 31, 31); font-family: Menlo, Monaco, &amp;quot;Courier New&amp;quot;, monospace; font-weight: normal; font-size: 12px; line-height: 18px;&quot;&gt;&lt;div&gt;&lt;span style=&quot;color: #4fc1ff;&quot;&gt;transcriberRole&lt;/span&gt;&lt;/div&gt;&lt;/div&gt;" style="swimlane;fontStyle=0;childLayout=stackLayout;horizontal=1;startSize=30;horizontalStack=0;resizeParent=1;resizeParentMax=0;resizeLast=0;collapsible=1;marginBottom=0;whiteSpace=wrap;html=1;" vertex="1" parent="1">
          <mxGeometry x="1870" y="980" width="350" height="330" as="geometry" />
        </mxCell>
        <mxCell id="PhxDLriE25jMCTU8oYbs-29" value="&lt;div style=&quot;color: rgb(204, 204, 204); background-color: rgb(31, 31, 31); font-family: Menlo, Monaco, &amp;quot;Courier New&amp;quot;, monospace; font-weight: normal; font-size: 12px; line-height: 18px;&quot;&gt;&lt;div style=&quot;line-height: 18px;&quot;&gt;&lt;div style=&quot;line-height: 18px;&quot;&gt;&lt;div style=&quot;line-height: 18px;&quot;&gt;&lt;div&gt;new &lt;span style=&quot;color: #9cdcfe;&quot;&gt;iam&lt;/span&gt;.&lt;span style=&quot;color: #4ec9b0;&quot;&gt;PolicyStatement&lt;/span&gt;({&lt;/div&gt;&lt;div&gt;        &lt;span style=&quot;color: #9cdcfe;&quot;&gt;effect&lt;/span&gt;&lt;span style=&quot;color: #9cdcfe;&quot;&gt;:&lt;/span&gt; &lt;span style=&quot;color: #9cdcfe;&quot;&gt;iam&lt;/span&gt;.&lt;span style=&quot;color: #4ec9b0;&quot;&gt;Effect&lt;/span&gt;.&lt;span style=&quot;color: #4fc1ff;&quot;&gt;ALLOW&lt;/span&gt;,&lt;/div&gt;&lt;div&gt;        &lt;span style=&quot;color: #9cdcfe;&quot;&gt;resources&lt;/span&gt;&lt;span style=&quot;color: #9cdcfe;&quot;&gt;:&lt;/span&gt; [&lt;span style=&quot;color: #ce9178;&quot;&gt;&#39;*&#39;&lt;/span&gt;],&lt;/div&gt;&lt;div&gt;        &lt;span style=&quot;color: #9cdcfe;&quot;&gt;actions&lt;/span&gt;&lt;span style=&quot;color: #9cdcfe;&quot;&gt;:&lt;/span&gt; [&lt;/div&gt;&lt;div&gt;          &lt;span style=&quot;color: #ce9178;&quot;&gt;&#39;transcribe:StartStreamTranscriptionWebSocket&#39;&lt;/span&gt;,&lt;/div&gt;&lt;div&gt;          &lt;span style=&quot;color: #ce9178;&quot;&gt;&#39;transcribe:StartMedicalStreamTranscription&#39;&lt;/span&gt;,&lt;/div&gt;&lt;div&gt;          &lt;span style=&quot;color: #ce9178;&quot;&gt;&#39;comprehendmedical:InferICD10CM&#39;&lt;/span&gt;,&lt;/div&gt;&lt;div&gt;          &lt;span style=&quot;color: #ce9178;&quot;&gt;&#39;comprehendmedical:InferRxNorm&#39;&lt;/span&gt;,&lt;/div&gt;&lt;div&gt;          &lt;span style=&quot;color: #ce9178;&quot;&gt;&#39;comprehendmedical:DetectEntitiesV2&#39;&lt;/span&gt;,&lt;/div&gt;&lt;div&gt;        ],&lt;/div&gt;&lt;div&gt;      }),&lt;/div&gt;&lt;div&gt;&lt;div style=&quot;line-height: 18px;&quot;&gt;&lt;div&gt;      new &lt;span style=&quot;color: #9cdcfe;&quot;&gt;iam&lt;/span&gt;.&lt;span style=&quot;color: #4ec9b0;&quot;&gt;PolicyStatement&lt;/span&gt;({&lt;/div&gt;&lt;div&gt;        &lt;span style=&quot;color: #9cdcfe;&quot;&gt;actions&lt;/span&gt;&lt;span style=&quot;color: #9cdcfe;&quot;&gt;:&lt;/span&gt; [&lt;span style=&quot;color: #ce9178;&quot;&gt;&#39;translate:TranslateText&#39;&lt;/span&gt;],&lt;/div&gt;&lt;div&gt;        &lt;span style=&quot;color: #9cdcfe;&quot;&gt;effect&lt;/span&gt;&lt;span style=&quot;color: #9cdcfe;&quot;&gt;:&lt;/span&gt; &lt;span style=&quot;color: #9cdcfe;&quot;&gt;iam&lt;/span&gt;.&lt;span style=&quot;color: #4ec9b0;&quot;&gt;Effect&lt;/span&gt;.&lt;span style=&quot;color: #4fc1ff;&quot;&gt;ALLOW&lt;/span&gt;,&lt;/div&gt;&lt;div&gt;        &lt;span style=&quot;color: #9cdcfe;&quot;&gt;resources&lt;/span&gt;&lt;span style=&quot;color: #9cdcfe;&quot;&gt;:&lt;/span&gt; [&lt;span style=&quot;color: #ce9178;&quot;&gt;&#39;*&#39;&lt;/span&gt;],&amp;nbsp;&lt;/div&gt;&lt;div&gt;      }),&lt;/div&gt;&lt;/div&gt;&lt;/div&gt;&lt;/div&gt;&lt;/div&gt;&lt;/div&gt;&lt;/div&gt;" style="text;strokeColor=none;fillColor=none;align=left;verticalAlign=middle;spacingLeft=4;spacingRight=4;overflow=hidden;points=[[0,0.5],[1,0.5]];portConstraint=eastwest;rotatable=0;whiteSpace=wrap;html=1;" vertex="1" parent="PhxDLriE25jMCTU8oYbs-28">
          <mxGeometry y="30" width="350" height="300" as="geometry" />
        </mxCell>
        <mxCell id="PhxDLriE25jMCTU8oYbs-35" style="edgeStyle=orthogonalEdgeStyle;rounded=0;orthogonalLoop=1;jettySize=auto;html=1;" edge="1" parent="1" source="PhxDLriE25jMCTU8oYbs-31" target="PhxDLriE25jMCTU8oYbs-34">
          <mxGeometry relative="1" as="geometry" />
        </mxCell>
        <mxCell id="PhxDLriE25jMCTU8oYbs-36" value="Global secundary Index" style="edgeLabel;html=1;align=center;verticalAlign=middle;resizable=0;points=[];" vertex="1" connectable="0" parent="PhxDLriE25jMCTU8oYbs-35">
          <mxGeometry x="0.2136" y="-2" relative="1" as="geometry">
            <mxPoint y="1" as="offset" />
          </mxGeometry>
        </mxCell>
        <mxCell id="PhxDLriE25jMCTU8oYbs-31" value="&lt;meta charset=&quot;utf-8&quot;&gt;&lt;div style=&quot;color: rgb(204, 204, 204); background-color: rgb(31, 31, 31); font-family: Menlo, Monaco, &amp;quot;Courier New&amp;quot;, monospace; font-weight: normal; font-size: 12px; line-height: 18px;&quot;&gt;&lt;div&gt;&lt;span style=&quot;color: #4fc1ff;&quot;&gt;TableSessions&lt;/span&gt;&lt;/div&gt;&lt;/div&gt;" style="sketch=0;outlineConnect=0;fontColor=#232F3E;gradientColor=none;fillColor=#2E27AD;strokeColor=none;dashed=0;verticalLabelPosition=bottom;verticalAlign=top;align=center;html=1;fontSize=12;fontStyle=0;aspect=fixed;pointerEvents=1;shape=mxgraph.aws4.attributes;" vertex="1" parent="1">
          <mxGeometry x="1410" y="1010" width="78" height="78" as="geometry" />
        </mxCell>
        <mxCell id="PhxDLriE25jMCTU8oYbs-32" value="&lt;meta charset=&quot;utf-8&quot;&gt;&lt;div style=&quot;color: rgb(204, 204, 204); background-color: rgb(31, 31, 31); font-family: Menlo, Monaco, &amp;quot;Courier New&amp;quot;, monospace; font-weight: normal; font-size: 12px; line-height: 18px;&quot;&gt;&lt;div&gt;&lt;span style=&quot;color: #4fc1ff;&quot;&gt;TablePatients&lt;/span&gt;&lt;/div&gt;&lt;/div&gt;" style="sketch=0;outlineConnect=0;fontColor=#232F3E;gradientColor=none;fillColor=#2E27AD;strokeColor=none;dashed=0;verticalLabelPosition=bottom;verticalAlign=top;align=center;html=1;fontSize=12;fontStyle=0;aspect=fixed;pointerEvents=1;shape=mxgraph.aws4.attributes;" vertex="1" parent="1">
          <mxGeometry x="1070" y="1010" width="78" height="78" as="geometry" />
        </mxCell>
        <mxCell id="PhxDLriE25jMCTU8oYbs-33" value="&lt;meta charset=&quot;utf-8&quot;&gt;&lt;div style=&quot;color: rgb(204, 204, 204); background-color: rgb(31, 31, 31); font-family: Menlo, Monaco, &amp;quot;Courier New&amp;quot;, monospace; font-weight: normal; font-size: 12px; line-height: 18px;&quot;&gt;&lt;div&gt;&lt;span style=&quot;color: #4fc1ff;&quot;&gt;TableHealthCareProfessionals&lt;/span&gt;&lt;/div&gt;&lt;/div&gt;" style="sketch=0;outlineConnect=0;fontColor=#232F3E;gradientColor=none;fillColor=#2E27AD;strokeColor=none;dashed=0;verticalLabelPosition=bottom;verticalAlign=top;align=center;html=1;fontSize=12;fontStyle=0;aspect=fixed;pointerEvents=1;shape=mxgraph.aws4.attributes;" vertex="1" parent="1">
          <mxGeometry x="1238" y="1010" width="78" height="78" as="geometry" />
        </mxCell>
        <mxCell id="PhxDLriE25jMCTU8oYbs-34" value="&lt;meta charset=&quot;utf-8&quot;&gt;&lt;div style=&quot;color: rgb(204, 204, 204); background-color: rgb(31, 31, 31); font-family: Menlo, Monaco, &amp;quot;Courier New&amp;quot;, monospace; font-weight: normal; font-size: 12px; line-height: 18px;&quot;&gt;&lt;div&gt;&lt;span style=&quot;color: #ce9178;&quot;&gt;hcpIndex&lt;/span&gt;&lt;/div&gt;&lt;/div&gt;" style="sketch=0;outlineConnect=0;fontColor=#232F3E;gradientColor=none;fillColor=#2E27AD;strokeColor=none;dashed=0;verticalLabelPosition=bottom;verticalAlign=top;align=center;html=1;fontSize=12;fontStyle=0;aspect=fixed;pointerEvents=1;shape=mxgraph.aws4.attributes;" vertex="1" parent="1">
          <mxGeometry x="1410" y="1270" width="78" height="78" as="geometry" />
        </mxCell>
        <mxCell id="PhxDLriE25jMCTU8oYbs-49" style="edgeStyle=orthogonalEdgeStyle;rounded=0;orthogonalLoop=1;jettySize=auto;html=1;entryX=1;entryY=0.5;entryDx=0;entryDy=0;entryPerimeter=0;" edge="1" parent="1" source="PhxDLriE25jMCTU8oYbs-38" target="PhxDLriE25jMCTU8oYbs-5">
          <mxGeometry relative="1" as="geometry" />
        </mxCell>
        <mxCell id="PhxDLriE25jMCTU8oYbs-38" value="&lt;meta charset=&quot;utf-8&quot;&gt;&lt;div style=&quot;color: rgb(204, 204, 204); background-color: rgb(31, 31, 31); font-family: Menlo, Monaco, &amp;quot;Courier New&amp;quot;, monospace; font-weight: normal; font-size: 12px; line-height: 18px;&quot;&gt;&lt;div&gt;&lt;span style=&quot;color: #4fc1ff;&quot;&gt;onEventAthenaLambda&lt;/span&gt;&lt;/div&gt;&lt;/div&gt;" style="sketch=0;outlineConnect=0;fontColor=#232F3E;gradientColor=none;fillColor=#3F8624;strokeColor=none;dashed=0;verticalLabelPosition=bottom;verticalAlign=top;align=center;html=1;fontSize=12;fontStyle=0;aspect=fixed;pointerEvents=1;shape=mxgraph.aws4.lambda_function;" vertex="1" parent="1">
          <mxGeometry x="1420" y="540" width="78" height="78" as="geometry" />
        </mxCell>
        <mxCell id="PhxDLriE25jMCTU8oYbs-41" style="edgeStyle=orthogonalEdgeStyle;rounded=0;orthogonalLoop=1;jettySize=auto;html=1;" edge="1" parent="1" source="PhxDLriE25jMCTU8oYbs-39" target="PhxDLriE25jMCTU8oYbs-38">
          <mxGeometry relative="1" as="geometry">
            <Array as="points">
              <mxPoint x="1970" y="579" />
            </Array>
          </mxGeometry>
        </mxCell>
        <mxCell id="PhxDLriE25jMCTU8oYbs-42" value="Role" style="edgeLabel;html=1;align=center;verticalAlign=middle;resizable=0;points=[];" vertex="1" connectable="0" parent="PhxDLriE25jMCTU8oYbs-41">
          <mxGeometry x="-0.2344" y="-1" relative="1" as="geometry">
            <mxPoint as="offset" />
          </mxGeometry>
        </mxCell>
        <mxCell id="PhxDLriE25jMCTU8oYbs-39" value="&lt;meta charset=&quot;utf-8&quot;&gt;&lt;div style=&quot;color: rgb(204, 204, 204); background-color: rgb(31, 31, 31); font-family: Menlo, Monaco, &amp;quot;Courier New&amp;quot;, monospace; font-weight: normal; font-size: 12px; line-height: 18px;&quot;&gt;&lt;div&gt;&lt;span style=&quot;color: #4fc1ff;&quot;&gt;onEventAthenaLambda&lt;/span&gt;&lt;/div&gt;&lt;/div&gt;" style="swimlane;fontStyle=0;childLayout=stackLayout;horizontal=1;startSize=30;horizontalStack=0;resizeParent=1;resizeParentMax=0;resizeLast=0;collapsible=1;marginBottom=0;whiteSpace=wrap;html=1;" vertex="1" parent="1">
          <mxGeometry x="1820" y="-100" width="350" height="490" as="geometry" />
        </mxCell>
        <mxCell id="PhxDLriE25jMCTU8oYbs-40" value="&lt;div style=&quot;color: rgb(204, 204, 204); background-color: rgb(31, 31, 31); font-family: Menlo, Monaco, &amp;quot;Courier New&amp;quot;, monospace; font-weight: normal; font-size: 12px; line-height: 18px;&quot;&gt;&lt;div style=&quot;line-height: 18px;&quot;&gt;&lt;div style=&quot;line-height: 18px;&quot;&gt;&lt;div style=&quot;line-height: 18px;&quot;&gt;&lt;div style=&quot;line-height: 18px;&quot;&gt;&lt;div&gt;new &lt;span style=&quot;color: #9cdcfe;&quot;&gt;iam&lt;/span&gt;.&lt;span style=&quot;color: #4ec9b0;&quot;&gt;PolicyStatement&lt;/span&gt;({&lt;/div&gt;&lt;div&gt;        &lt;span style=&quot;color: #9cdcfe;&quot;&gt;effect&lt;/span&gt;&lt;span style=&quot;color: #9cdcfe;&quot;&gt;:&lt;/span&gt; &lt;span style=&quot;color: #9cdcfe;&quot;&gt;iam&lt;/span&gt;.&lt;span style=&quot;color: #4ec9b0;&quot;&gt;Effect&lt;/span&gt;.&lt;span style=&quot;color: #4fc1ff;&quot;&gt;ALLOW&lt;/span&gt;,&lt;/div&gt;&lt;div&gt;        &lt;span style=&quot;color: #9cdcfe;&quot;&gt;actions&lt;/span&gt;&lt;span style=&quot;color: #9cdcfe;&quot;&gt;:&lt;/span&gt; [&lt;/div&gt;&lt;div&gt;          &lt;span style=&quot;color: #ce9178;&quot;&gt;&#39;athena:StartQueryExecution&#39;&lt;/span&gt;,&lt;/div&gt;&lt;div&gt;          &lt;span style=&quot;color: #ce9178;&quot;&gt;&#39;athena:CreateNamedQuery&#39;&lt;/span&gt;,&lt;/div&gt;&lt;div&gt;          &lt;span style=&quot;color: #ce9178;&quot;&gt;&#39;athena:DeleteNamedQuery&#39;&lt;/span&gt;,&lt;/div&gt;&lt;div&gt;          &lt;span style=&quot;color: #ce9178;&quot;&gt;&#39;athena:GetQueryResults&#39;&lt;/span&gt;,&lt;/div&gt;&lt;div&gt;          &lt;span style=&quot;color: #ce9178;&quot;&gt;&#39;athena:CreateWorkGroup&#39;&lt;/span&gt;,&lt;/div&gt;&lt;div&gt;          &lt;span style=&quot;color: #ce9178;&quot;&gt;&#39;athena:DeleteWorkGroup&#39;&lt;/span&gt;,&lt;/div&gt;&lt;div&gt;        ],&lt;/div&gt;&lt;div&gt;        &lt;span style=&quot;color: #9cdcfe;&quot;&gt;resources&lt;/span&gt;&lt;span style=&quot;color: #9cdcfe;&quot;&gt;:&lt;/span&gt; [&lt;span style=&quot;color: #ce9178;&quot;&gt;&#39;*&#39;&lt;/span&gt;],&lt;/div&gt;&lt;div&gt;      }),&lt;/div&gt;&lt;div&gt;&lt;br&gt;&lt;/div&gt;&lt;div&gt;&lt;div style=&quot;line-height: 18px;&quot;&gt;&lt;div&gt;new &lt;span style=&quot;color: #9cdcfe;&quot;&gt;iam&lt;/span&gt;.&lt;span style=&quot;color: #4ec9b0;&quot;&gt;PolicyStatement&lt;/span&gt;({&lt;/div&gt;&lt;div&gt;        &lt;span style=&quot;color: #9cdcfe;&quot;&gt;effect&lt;/span&gt;&lt;span style=&quot;color: #9cdcfe;&quot;&gt;:&lt;/span&gt; &lt;span style=&quot;color: #9cdcfe;&quot;&gt;iam&lt;/span&gt;.&lt;span style=&quot;color: #4ec9b0;&quot;&gt;Effect&lt;/span&gt;.&lt;span style=&quot;color: #4fc1ff;&quot;&gt;ALLOW&lt;/span&gt;,&lt;/div&gt;&lt;div&gt;        &lt;span style=&quot;color: #9cdcfe;&quot;&gt;actions&lt;/span&gt;&lt;span style=&quot;color: #9cdcfe;&quot;&gt;:&lt;/span&gt; [&lt;span style=&quot;color: #ce9178;&quot;&gt;&#39;s3:PutObject&#39;&lt;/span&gt;, &lt;span style=&quot;color: #ce9178;&quot;&gt;&#39;s3:GetObject&#39;&lt;/span&gt;, &lt;span style=&quot;color: #ce9178;&quot;&gt;&#39;s3:AbortMultipartUpload&#39;&lt;/span&gt;],&lt;/div&gt;&lt;div&gt;        &lt;span style=&quot;color: #9cdcfe;&quot;&gt;resources&lt;/span&gt;&lt;span style=&quot;color: #9cdcfe;&quot;&gt;:&lt;/span&gt; [&lt;span style=&quot;color: #ce9178;&quot;&gt;&#39;*&#39;&lt;/span&gt;],&lt;/div&gt;&lt;div&gt;      }),&lt;/div&gt;&lt;div&gt;&lt;br&gt;&lt;/div&gt;&lt;div&gt;&lt;div style=&quot;line-height: 18px;&quot;&gt;&lt;div&gt;      new &lt;span style=&quot;color: #9cdcfe;&quot;&gt;iam&lt;/span&gt;.&lt;span style=&quot;color: #4ec9b0;&quot;&gt;PolicyStatement&lt;/span&gt;({&lt;/div&gt;&lt;div&gt;        &lt;span style=&quot;color: #9cdcfe;&quot;&gt;effect&lt;/span&gt;&lt;span style=&quot;color: #9cdcfe;&quot;&gt;:&lt;/span&gt; &lt;span style=&quot;color: #9cdcfe;&quot;&gt;iam&lt;/span&gt;.&lt;span style=&quot;color: #4ec9b0;&quot;&gt;Effect&lt;/span&gt;.&lt;span style=&quot;color: #4fc1ff;&quot;&gt;ALLOW&lt;/span&gt;,&lt;/div&gt;&lt;div&gt;        &lt;span style=&quot;color: #9cdcfe;&quot;&gt;actions&lt;/span&gt;&lt;span style=&quot;color: #9cdcfe;&quot;&gt;:&lt;/span&gt; [&lt;span style=&quot;color: #ce9178;&quot;&gt;&#39;glue:*&#39;&lt;/span&gt;],&lt;/div&gt;&lt;div&gt;        &lt;span style=&quot;color: #9cdcfe;&quot;&gt;resources&lt;/span&gt;&lt;span style=&quot;color: #9cdcfe;&quot;&gt;:&lt;/span&gt; [&lt;span style=&quot;color: #ce9178;&quot;&gt;&#39;*&#39;&lt;/span&gt;],&lt;/div&gt;&lt;div&gt;      }),&lt;/div&gt;&lt;/div&gt;&lt;/div&gt;&lt;/div&gt;&lt;/div&gt;&lt;/div&gt;&lt;/div&gt;&lt;/div&gt;&lt;/div&gt;&lt;/div&gt;" style="text;strokeColor=none;fillColor=none;align=left;verticalAlign=middle;spacingLeft=4;spacingRight=4;overflow=hidden;points=[[0,0.5],[1,0.5]];portConstraint=eastwest;rotatable=0;whiteSpace=wrap;html=1;" vertex="1" parent="PhxDLriE25jMCTU8oYbs-39">
          <mxGeometry y="30" width="350" height="460" as="geometry" />
        </mxCell>
        <mxCell id="PhxDLriE25jMCTU8oYbs-46" style="edgeStyle=orthogonalEdgeStyle;rounded=0;orthogonalLoop=1;jettySize=auto;html=1;" edge="1" parent="1" source="PhxDLriE25jMCTU8oYbs-43" target="PhxDLriE25jMCTU8oYbs-31">
          <mxGeometry relative="1" as="geometry" />
        </mxCell>
        <mxCell id="PhxDLriE25jMCTU8oYbs-47" style="edgeStyle=orthogonalEdgeStyle;rounded=0;orthogonalLoop=1;jettySize=auto;html=1;" edge="1" parent="1" source="PhxDLriE25jMCTU8oYbs-43" target="PhxDLriE25jMCTU8oYbs-33">
          <mxGeometry relative="1" as="geometry" />
        </mxCell>
        <mxCell id="PhxDLriE25jMCTU8oYbs-48" style="edgeStyle=orthogonalEdgeStyle;rounded=0;orthogonalLoop=1;jettySize=auto;html=1;" edge="1" parent="1" source="PhxDLriE25jMCTU8oYbs-43" target="PhxDLriE25jMCTU8oYbs-32">
          <mxGeometry relative="1" as="geometry" />
        </mxCell>
        <mxCell id="PhxDLriE25jMCTU8oYbs-50" style="edgeStyle=orthogonalEdgeStyle;rounded=0;orthogonalLoop=1;jettySize=auto;html=1;entryX=1;entryY=0.75;entryDx=0;entryDy=0;entryPerimeter=0;" edge="1" parent="1" source="PhxDLriE25jMCTU8oYbs-43" target="PhxDLriE25jMCTU8oYbs-5">
          <mxGeometry relative="1" as="geometry">
            <Array as="points">
              <mxPoint x="730" y="770" />
              <mxPoint x="730" y="289" />
            </Array>
          </mxGeometry>
        </mxCell>
        <mxCell id="PhxDLriE25jMCTU8oYbs-43" value="&lt;meta charset=&quot;utf-8&quot;&gt;&lt;div style=&quot;color: rgb(204, 204, 204); background-color: rgb(31, 31, 31); font-family: Menlo, Monaco, &amp;quot;Courier New&amp;quot;, monospace; font-weight: normal; font-size: 12px; line-height: 18px;&quot;&gt;&lt;div&gt;&lt;span style=&quot;color: #4fc1ff;&quot;&gt;apiProcessor&lt;/span&gt;&lt;/div&gt;&lt;/div&gt;" style="sketch=0;outlineConnect=0;fontColor=#232F3E;gradientColor=none;fillColor=#3F8624;strokeColor=none;dashed=0;verticalLabelPosition=bottom;verticalAlign=top;align=center;html=1;fontSize=12;fontStyle=0;aspect=fixed;pointerEvents=1;shape=mxgraph.aws4.lambda_function;" vertex="1" parent="1">
          <mxGeometry x="1710" y="750" width="78" height="78" as="geometry" />
        </mxCell>
        <mxCell id="PhxDLriE25jMCTU8oYbs-52" style="edgeStyle=orthogonalEdgeStyle;rounded=0;orthogonalLoop=1;jettySize=auto;html=1;" edge="1" parent="1" source="PhxDLriE25jMCTU8oYbs-51" target="PhxDLriE25jMCTU8oYbs-43">
          <mxGeometry relative="1" as="geometry">
            <Array as="points">
              <mxPoint x="709" y="940" />
              <mxPoint x="1730" y="940" />
            </Array>
          </mxGeometry>
        </mxCell>
        <mxCell id="PhxDLriE25jMCTU8oYbs-51" value="&lt;meta charset=&quot;utf-8&quot;&gt;&lt;div style=&quot;color: rgb(204, 204, 204); background-color: rgb(31, 31, 31); font-family: Menlo, Monaco, &amp;quot;Courier New&amp;quot;, monospace; font-weight: normal; font-size: 12px; line-height: 18px;&quot;&gt;&lt;div&gt;&lt;span style=&quot;color: #4fc1ff;&quot;&gt;api&lt;/span&gt;&lt;/div&gt;&lt;/div&gt;" style="sketch=0;points=[[0,0,0],[0.25,0,0],[0.5,0,0],[0.75,0,0],[1,0,0],[0,1,0],[0.25,1,0],[0.5,1,0],[0.75,1,0],[1,1,0],[0,0.25,0],[0,0.5,0],[0,0.75,0],[1,0.25,0],[1,0.5,0],[1,0.75,0]];outlineConnect=0;fontColor=#232F3E;gradientColor=#FF4F8B;gradientDirection=north;fillColor=#BC1356;strokeColor=#ffffff;dashed=0;verticalLabelPosition=bottom;verticalAlign=top;align=center;html=1;fontSize=12;fontStyle=0;aspect=fixed;shape=mxgraph.aws4.resourceIcon;resIcon=mxgraph.aws4.api_gateway;" vertex="1" parent="1">
          <mxGeometry x="670" y="990" width="78" height="78" as="geometry" />
        </mxCell>
      </root>
    </mxGraphModel>
  </diagram>
</mxfile>
